<svg xmlns="http://www.w3.org/2000/svg" fill="none" viewBox="0 0 127 19" height="19" width="127">
<g clip-path="url(#clip0_2627_1720)">
<path fill="#1A414F" d="M101.26 9.90853e-05C99.374 0.159095 97.6739 0.768579 96.2395 1.82855C94.1675 3.36551 92.8128 5.69745 92.5206 8.32088C92.4409 8.90386 92.4409 9.72534 92.4675 10.3348C92.7065 13.7532 94.5394 16.5622 97.4348 17.9931C98.5239 18.5231 99.7724 18.8676 101.021 18.9736C101.366 19.0001 102.668 19.0001 103.013 18.9736C104.926 18.8146 106.705 18.2051 108.459 17.0921C109.202 16.6152 109.574 16.1117 109.681 15.3962C109.681 15.2637 109.707 14.3097 109.707 12.5078C109.707 9.56635 109.707 9.64585 109.548 9.27485C109.442 9.06286 109.176 8.74487 108.937 8.61237C108.857 8.55937 108.671 8.47988 108.538 8.45338L108.326 8.40038H102.721L102.508 8.47988C101.898 8.66537 101.499 9.19536 101.499 9.83134C101.499 10.2288 101.632 10.5468 101.924 10.8118C102.11 10.9973 102.269 11.0768 102.535 11.1563C102.748 11.2093 102.827 11.2093 104.66 11.2093H106.573V14.6542L106.28 14.8397C105.112 15.5817 103.837 15.9792 102.349 16.0057C101.154 16.0322 100.251 15.8467 99.3208 15.3962C97.1161 14.3362 95.841 12.0838 95.8942 9.35435C95.8942 8.21488 96.1332 7.28741 96.5848 6.33343C97.5145 4.42548 99.188 3.20651 101.18 2.96802C101.818 2.88852 102.827 2.94152 103.544 3.10052C104.501 3.31251 105.165 3.604 106.095 4.21349C106.36 4.37248 106.626 4.55798 106.679 4.58448C106.865 4.69048 107.104 4.74347 107.343 4.74347C107.795 4.74347 108.166 4.58448 108.485 4.23999C108.963 3.7365 109.07 3.04752 108.751 2.41154C108.618 2.14654 108.379 1.90805 107.954 1.61656C106.52 0.662582 104.952 0.132596 103.093 9.90853e-05C102.694 -0.0264002 101.579 -0.0264002 101.287 9.90853e-05H101.26Z"></path>
<path fill="#1A414F" d="M125.008 0.185379C124.716 0.264877 124.503 0.397373 124.237 0.662366C124.025 0.874361 123.733 1.27185 122.006 3.73629C120.917 5.29974 119.748 6.9427 119.429 7.41969C119.111 7.89668 118.792 8.32067 118.765 8.37366C118.712 8.47966 118.686 8.47966 118.659 8.45316C118.632 8.42666 118.447 8.16167 117.278 6.46571C114.993 3.1533 113.479 1.00686 113.426 0.927359C113.293 0.768363 112.974 0.476871 112.842 0.370874C112.603 0.211878 112.39 0.15888 112.071 0.13238C111.354 0.105881 110.77 0.423873 110.478 1.05986C110.265 1.51034 110.318 2.09333 110.61 2.62331C110.663 2.72931 111.221 3.49779 111.832 4.34577C112.47 5.19375 113.904 7.1547 115.02 8.69166L117.065 11.4741V14.389C117.065 17.6219 117.065 17.5159 117.251 17.8869C117.384 18.1784 117.65 18.4434 117.942 18.5759C118.42 18.8144 118.925 18.8144 119.429 18.5759C119.695 18.4434 120.014 18.1519 120.12 17.8869C120.306 17.5159 120.306 17.6749 120.306 14.389V11.3946L121.103 10.3081C125.539 4.26627 126.761 2.57032 126.867 2.38482C127.106 1.88133 127.133 1.37785 126.867 0.874361C126.761 0.662366 126.469 0.344375 126.256 0.238377C125.937 0.0793816 125.406 -0.000116292 125.061 0.105881L125.008 0.185379Z"></path>
<path fill="#1A414F" d="M55.1458 0.212063C54.6145 0.34456 54.1895 0.768548 54.0036 1.32503C53.9504 1.48403 53.9504 1.69602 53.9504 7.15488C53.9504 10.2818 53.9504 12.8787 53.9504 12.9052C53.9504 12.9582 53.8707 12.9052 53.552 12.4812C53.3395 12.2162 52.9941 11.7658 52.7816 11.5008C52.5691 11.2358 50.6566 8.74484 48.5049 5.98891C45.9017 2.597 44.547 0.901045 44.3876 0.742049C44.1485 0.503555 43.8829 0.34456 43.6172 0.238562C43.3516 0.159064 42.5547 0.132565 42.2891 0.212063C41.6781 0.371059 41.2265 0.848046 41.0937 1.45753C41.0406 1.74902 41.0406 17.2776 41.0937 17.5691C41.2 18.0196 41.5187 18.4436 41.9437 18.6291C42.8203 19.0531 43.8032 18.6821 44.1751 17.7546L44.2548 17.5956V11.5803L44.2813 5.56492L48.9034 11.5538C51.4535 14.8397 53.6051 17.6486 53.7114 17.7811C53.8176 17.9136 54.0036 18.1256 54.1364 18.2581C54.4286 18.5231 54.7473 18.7086 55.0661 18.7616C55.3317 18.8146 55.8099 18.7881 55.9958 18.7616C56.5271 18.6026 56.899 18.2051 57.0584 17.7016L57.1115 17.5161V1.45753L57.0584 1.27204C56.8724 0.742049 56.4474 0.34456 55.9161 0.212063C55.7036 0.159064 55.3583 0.159064 55.1458 0.212063Z"></path>
<path fill="#1A414F" d="M26.3775 0.318003C26.165 0.344503 26.0588 0.397501 25.8197 0.503498C25.4744 0.688993 25.1822 1.03348 25.0494 1.40447L24.9962 1.58997V9.40726C24.9962 18.099 24.9697 17.4101 25.1822 17.834C25.3681 18.205 25.6603 18.4435 26.0853 18.629L26.2713 18.7085H31.9559C38.1717 18.7085 37.7733 18.7085 38.1452 18.5495C38.3577 18.4435 38.6764 18.1255 38.7827 17.9135C38.9421 17.569 38.9686 17.2776 38.8889 16.9331C38.7561 16.4031 38.3577 15.9791 37.7998 15.8466C37.6405 15.8201 37.1092 15.7936 32.9387 15.7936H28.237V10.8647H32.2746C36.7107 10.8647 36.4451 10.8647 36.817 10.7057C37.1623 10.5467 37.4811 10.1492 37.5608 9.77825C37.6405 9.46026 37.5608 9.08927 37.4279 8.77128C37.3217 8.55929 37.0029 8.24129 36.7904 8.1353C36.4451 7.9763 36.6842 7.9763 32.2746 7.9763H28.2104V3.20643H32.859C37.2154 3.20643 37.5076 3.20643 37.6936 3.15343C37.9592 3.07393 38.1452 2.96793 38.3577 2.75594C38.7561 2.38495 38.8889 1.82846 38.703 1.29848C38.5436 0.847989 38.2249 0.529998 37.7467 0.344503L37.5608 0.291504H32.0356C28.9808 0.291504 26.4307 0.291504 26.351 0.291504L26.3775 0.318003Z"></path>
<path fill="#1A414F" d="M61.1757 0.31799C60.5647 0.397488 60.1131 0.768478 59.8475 1.35146L59.7678 1.53696V9.40725C59.7678 18.099 59.7413 17.41 59.9272 17.8075C60.06 18.0725 60.3788 18.3905 60.6444 18.4965C61.0163 18.682 60.6444 18.6555 66.8071 18.6555C72.9699 18.6555 72.5449 18.6555 72.8902 18.4965C73.448 18.205 73.7668 17.5425 73.634 16.9331C73.5277 16.3766 73.0761 15.9261 72.5449 15.7936C72.3855 15.7671 71.748 15.7406 67.6837 15.7406H62.982V10.8117H67.0197C71.4292 10.8117 71.2167 10.8117 71.562 10.6527C71.7745 10.5467 72.0667 10.2552 72.173 10.0697C72.3855 9.64574 72.412 9.19526 72.173 8.74477C72.0136 8.40028 71.7214 8.13528 71.3495 8.00279L71.1901 7.92329H67.0728H62.9554V5.53835V3.15342H67.6306H72.3058L72.5183 3.07392C73.023 2.88842 73.3683 2.49093 73.4746 2.01395C73.5543 1.66945 73.5011 1.37796 73.3418 1.03347C73.1558 0.662481 72.6777 0.31799 72.2792 0.264992C72.0667 0.238492 61.3616 0.238492 61.1226 0.264992L61.1757 0.31799Z"></path>
<path fill="#1A414F" d="M77.1935 0.317952C76.8216 0.370951 76.3966 0.609445 76.1841 0.874438C76.0512 1.03343 75.9715 1.16593 75.8919 1.40442L75.8387 1.56342V9.51321C75.8387 16.5355 75.8387 17.463 75.8653 17.622C76.0247 18.205 76.4763 18.6555 77.0607 18.788C77.2466 18.841 77.6982 18.841 77.8576 18.788C78.1232 18.7085 78.3888 18.5495 78.5748 18.3905C78.7607 18.205 78.867 18.046 78.9732 17.7545L79.0529 17.569V14.9191V12.2691H81.0983H83.1437L83.5421 12.7991C84.2062 13.6471 85.1891 14.8926 86.4907 16.562C87.1813 17.4365 87.7657 18.205 87.8454 18.258C88.0048 18.417 88.3236 18.629 88.5361 18.7085C88.6423 18.735 88.8283 18.788 88.9611 18.8145C89.3861 18.8675 89.8111 18.7615 90.1564 18.4965C90.7143 18.0725 90.9002 17.2775 90.5815 16.6415C90.4752 16.4295 90.3158 16.2175 89.7049 15.4491C87.5798 12.7726 86.7298 11.6862 86.7298 11.6597C86.7298 11.6597 86.836 11.6067 86.9688 11.5537C88.0579 11.1562 88.9345 10.5997 89.5721 9.8842C90.4752 8.85073 90.9268 7.47276 90.8737 5.90931C90.794 3.76286 89.7846 2.09341 87.9782 1.16593C87.1016 0.715442 86.1985 0.476948 84.9234 0.317952C84.6578 0.291453 77.3528 0.264954 77.1669 0.317952H77.1935ZM84.339 3.28587C85.4281 3.39187 86.1719 3.68336 86.7298 4.18685C87.2079 4.63734 87.4735 5.16732 87.5532 5.85631C87.686 6.88978 87.3938 7.79076 86.7298 8.42674C86.2516 8.87723 85.7203 9.14222 84.8969 9.32771L84.5516 9.40721H81.8155H79.0795V3.25937H81.5764C82.9577 3.25937 84.2062 3.25937 84.339 3.28587Z"></path>
<path fill="#1A414F" d="M8.02217 0.397593C7.67685 0.477091 7.33152 0.715585 7.11901 1.03358C6.85338 1.45757 6.82682 2.01405 7.06589 2.49104C7.22527 2.78253 7.57059 3.10052 7.91592 3.20652C8.10186 3.25952 8.18155 3.25952 14.849 3.25952H21.5961L21.7024 3.10052C22.0211 2.59704 22.1539 1.93455 22.0477 1.48406C21.9149 0.954078 21.4899 0.556589 20.932 0.424092C20.7726 0.397593 20.0023 0.371094 14.4771 0.371094C9.24409 0.371094 8.18155 0.371094 8.04874 0.424092L8.02217 0.397593Z"></path>
<path fill="#1A414F" d="M14.424 4.39884C14.1318 4.63734 13.8661 4.87583 13.8396 4.92883L13.7599 5.00833H20.1351L20.5336 4.50484C20.7461 4.23985 20.9586 4.00135 20.9586 3.97485C20.9586 3.97485 19.6304 3.97485 17.9569 3.97485H14.9287L14.3974 4.42534L14.424 4.39884Z"></path>
<path fill="#1A414F" d="M15.2474 6.17425C15.0349 6.43925 14.849 6.65124 14.849 6.67774C14.849 6.70424 15.6725 6.67774 16.7881 6.70424H18.7273L19.1257 6.22725C19.3382 5.96226 19.5242 5.75026 19.5507 5.72376C19.5507 5.72376 19.1788 5.69727 17.6381 5.69727H15.699L15.3006 6.17425H15.2474Z"></path>
<path fill="#1A414F" d="M2.39071 7.8968C2.07195 8.16179 1.83288 8.40028 1.80632 8.40028C1.77975 8.40028 5.28613 8.40028 9.53629 8.40028H17.2928L17.6913 7.8968C17.9038 7.6318 18.0897 7.39331 18.0897 7.39331C18.0897 7.39331 14.6896 7.39331 10.5191 7.39331H2.97511L2.41728 7.8968H2.39071Z"></path>
<path fill="#1A414F" d="M0.584397 9.59284C0.292198 9.88433 0 10.0963 0 10.1228C0 10.1228 3.02824 10.1228 7.91592 10.1228H15.8584L16.2303 9.67234C16.4428 9.43385 16.6287 9.19535 16.6553 9.14235L16.7084 9.08936H1.16879L0.61096 9.59284H0.584397Z"></path>
<path fill="#1A414F" d="M7.01276 11.3418C6.694 11.6067 6.45493 11.8452 6.45493 11.8717C6.45493 11.8717 8.23468 11.8717 10.4394 11.8717H14.424L14.849 11.3418L15.274 10.8118H7.57059L7.01276 11.3153V11.3418Z"></path>
<path fill="#1A414F" d="M9.98787 12.5872C9.98787 12.5872 9.1644 13.5411 9.13784 13.5941C9.13784 13.6206 9.4566 13.6206 11.0238 13.6206C12.0598 13.6206 12.9364 13.6206 12.963 13.6206C13.0161 13.6206 13.7864 12.6667 13.813 12.6137C13.813 12.5872 13.5474 12.5872 11.927 12.5872C10.891 12.5872 10.0144 12.5872 9.98787 12.5872Z"></path>
<path fill="#1A414F" d="M6.9065 14.3625C6.9065 14.3625 5.73771 15.343 5.73771 15.3695C5.73771 15.3695 7.03932 15.3695 8.63313 15.3695H11.5285L11.9536 14.866C12.1926 14.5745 12.3786 14.336 12.3786 14.336C12.3786 14.283 6.98619 14.3095 6.9065 14.336V14.3625Z"></path>
<path fill="#1A414F" d="M6.98619 16.191C6.87994 16.35 6.72056 16.668 6.66743 16.8535C6.45492 17.5159 6.56118 18.1254 7.01276 18.5494C7.22526 18.7614 7.57059 18.9469 7.83622 18.9734C7.94248 18.9734 10.5988 18.9734 14.4505 18.9734C20.6133 18.9734 20.8789 18.9734 21.0383 18.9204C21.5695 18.7349 21.9414 18.3639 22.0743 17.8604C22.1539 17.5424 22.1008 17.198 21.968 16.8535C21.8617 16.6415 21.5164 16.297 21.3039 16.191C20.9586 16.032 21.3836 16.032 13.9193 16.032H7.09245L7.01276 16.1645L6.98619 16.191Z"></path>
</g>
<defs>
<clipPath id="clip0_2627_1720">
<rect fill="white" height="19" width="127"></rect>
</clipPath>
</defs>
</svg>
